<mxfile host="app.diagrams.net" agent="Mozilla/5.0 (Windows NT 10.0; Win64; x64) AppleWebKit/537.36 (KHTML, like Gecko) Chrome/128.0.0.0 Safari/537.36" version="24.7.16">
  <diagram name="Page-1" id="79Mp-K0NoMamogRPP8yi">
    <mxGraphModel dx="1687" dy="868" grid="1" gridSize="10" guides="1" tooltips="1" connect="1" arrows="1" fold="1" page="1" pageScale="1" pageWidth="850" pageHeight="1100" math="0" shadow="0">
      <root>
        <mxCell id="0" />
        <mxCell id="1" parent="0" />
        <mxCell id="XT0uwpQFi3JfV9xLX5Nc-1" value="React App" style="rounded=0;whiteSpace=wrap;html=1;" vertex="1" parent="1">
          <mxGeometry x="360" y="490" width="120" height="60" as="geometry" />
        </mxCell>
        <mxCell id="XT0uwpQFi3JfV9xLX5Nc-2" value="Firebase DB" style="shape=cylinder3;whiteSpace=wrap;html=1;boundedLbl=1;backgroundOutline=1;size=15;" vertex="1" parent="1">
          <mxGeometry x="940" y="230" width="110" height="130" as="geometry" />
        </mxCell>
        <mxCell id="XT0uwpQFi3JfV9xLX5Nc-3" value="Google" style="ellipse;shape=cloud;whiteSpace=wrap;html=1;" vertex="1" parent="1">
          <mxGeometry x="950" y="640" width="260" height="170" as="geometry" />
        </mxCell>
        <mxCell id="XT0uwpQFi3JfV9xLX5Nc-5" value="" style="endArrow=classic;html=1;rounded=0;exitX=1;exitY=0;exitDx=0;exitDy=0;entryX=0.07;entryY=0.4;entryDx=0;entryDy=0;entryPerimeter=0;" edge="1" parent="1" source="XT0uwpQFi3JfV9xLX5Nc-1" target="XT0uwpQFi3JfV9xLX5Nc-3">
          <mxGeometry width="50" height="50" relative="1" as="geometry">
            <mxPoint x="720" y="570" as="sourcePoint" />
            <mxPoint x="770" y="520" as="targetPoint" />
          </mxGeometry>
        </mxCell>
        <mxCell id="XT0uwpQFi3JfV9xLX5Nc-6" value="1. Sign-in to Google with a Google account" style="edgeLabel;html=1;align=center;verticalAlign=middle;resizable=0;points=[];" vertex="1" connectable="0" parent="XT0uwpQFi3JfV9xLX5Nc-5">
          <mxGeometry x="-0.4259" y="2" relative="1" as="geometry">
            <mxPoint x="-470" y="-471" as="offset" />
          </mxGeometry>
        </mxCell>
        <mxCell id="XT0uwpQFi3JfV9xLX5Nc-16" value="1" style="edgeLabel;html=1;align=center;verticalAlign=middle;resizable=0;points=[];" vertex="1" connectable="0" parent="XT0uwpQFi3JfV9xLX5Nc-5">
          <mxGeometry x="-0.0839" y="3" relative="1" as="geometry">
            <mxPoint as="offset" />
          </mxGeometry>
        </mxCell>
        <mxCell id="XT0uwpQFi3JfV9xLX5Nc-7" value="" style="endArrow=classic;html=1;rounded=0;entryX=1;entryY=1;entryDx=0;entryDy=0;exitX=0.13;exitY=0.77;exitDx=0;exitDy=0;exitPerimeter=0;" edge="1" parent="1" source="XT0uwpQFi3JfV9xLX5Nc-3" target="XT0uwpQFi3JfV9xLX5Nc-1">
          <mxGeometry width="50" height="50" relative="1" as="geometry">
            <mxPoint x="720" y="570" as="sourcePoint" />
            <mxPoint x="770" y="520" as="targetPoint" />
          </mxGeometry>
        </mxCell>
        <mxCell id="XT0uwpQFi3JfV9xLX5Nc-8" value="2. Google authenticates wth user with an auth_token" style="edgeLabel;html=1;align=center;verticalAlign=middle;resizable=0;points=[];" vertex="1" connectable="0" parent="XT0uwpQFi3JfV9xLX5Nc-7">
          <mxGeometry x="0.4135" y="1" relative="1" as="geometry">
            <mxPoint x="-458" y="-506" as="offset" />
          </mxGeometry>
        </mxCell>
        <mxCell id="XT0uwpQFi3JfV9xLX5Nc-17" value="2" style="edgeLabel;html=1;align=center;verticalAlign=middle;resizable=0;points=[];" vertex="1" connectable="0" parent="XT0uwpQFi3JfV9xLX5Nc-7">
          <mxGeometry x="0.0623" y="2" relative="1" as="geometry">
            <mxPoint as="offset" />
          </mxGeometry>
        </mxCell>
        <mxCell id="XT0uwpQFi3JfV9xLX5Nc-9" value="" style="endArrow=classic;html=1;rounded=0;entryX=0;entryY=1;entryDx=0;entryDy=-15;entryPerimeter=0;exitX=0.75;exitY=0;exitDx=0;exitDy=0;" edge="1" parent="1" source="XT0uwpQFi3JfV9xLX5Nc-1" target="XT0uwpQFi3JfV9xLX5Nc-2">
          <mxGeometry width="50" height="50" relative="1" as="geometry">
            <mxPoint x="720" y="570" as="sourcePoint" />
            <mxPoint x="770" y="520" as="targetPoint" />
          </mxGeometry>
        </mxCell>
        <mxCell id="XT0uwpQFi3JfV9xLX5Nc-10" value="3. The app with use the auth_token to Firebase DB to request for an access token" style="edgeLabel;html=1;align=center;verticalAlign=middle;resizable=0;points=[];" vertex="1" connectable="0" parent="XT0uwpQFi3JfV9xLX5Nc-9">
          <mxGeometry x="-0.001" y="3" relative="1" as="geometry">
            <mxPoint x="-454" y="-275" as="offset" />
          </mxGeometry>
        </mxCell>
        <mxCell id="XT0uwpQFi3JfV9xLX5Nc-18" value="3" style="edgeLabel;html=1;align=center;verticalAlign=middle;resizable=0;points=[];" vertex="1" connectable="0" parent="XT0uwpQFi3JfV9xLX5Nc-9">
          <mxGeometry x="0.1072" relative="1" as="geometry">
            <mxPoint as="offset" />
          </mxGeometry>
        </mxCell>
        <mxCell id="XT0uwpQFi3JfV9xLX5Nc-11" value="" style="endArrow=classic;html=1;rounded=0;exitX=1;exitY=1;exitDx=0;exitDy=-15;exitPerimeter=0;entryX=0.4;entryY=0.1;entryDx=0;entryDy=0;entryPerimeter=0;" edge="1" parent="1" source="XT0uwpQFi3JfV9xLX5Nc-2" target="XT0uwpQFi3JfV9xLX5Nc-3">
          <mxGeometry width="50" height="50" relative="1" as="geometry">
            <mxPoint x="970" y="400" as="sourcePoint" />
            <mxPoint x="1020" y="350" as="targetPoint" />
          </mxGeometry>
        </mxCell>
        <mxCell id="XT0uwpQFi3JfV9xLX5Nc-12" value="4. Firebase DB validates with Google the auth_token" style="edgeLabel;html=1;align=center;verticalAlign=middle;resizable=0;points=[];" vertex="1" connectable="0" parent="XT0uwpQFi3JfV9xLX5Nc-11">
          <mxGeometry x="-0.556" relative="1" as="geometry">
            <mxPoint x="-881" y="-244" as="offset" />
          </mxGeometry>
        </mxCell>
        <mxCell id="XT0uwpQFi3JfV9xLX5Nc-19" value="4" style="edgeLabel;html=1;align=center;verticalAlign=middle;resizable=0;points=[];" vertex="1" connectable="0" parent="XT0uwpQFi3JfV9xLX5Nc-11">
          <mxGeometry x="-0.0197" y="3" relative="1" as="geometry">
            <mxPoint as="offset" />
          </mxGeometry>
        </mxCell>
        <mxCell id="XT0uwpQFi3JfV9xLX5Nc-13" value="" style="endArrow=classic;html=1;rounded=0;entryX=0.5;entryY=1;entryDx=0;entryDy=0;entryPerimeter=0;exitX=0.25;exitY=0.25;exitDx=0;exitDy=0;exitPerimeter=0;" edge="1" parent="1" source="XT0uwpQFi3JfV9xLX5Nc-3" target="XT0uwpQFi3JfV9xLX5Nc-2">
          <mxGeometry width="50" height="50" relative="1" as="geometry">
            <mxPoint x="960" y="600" as="sourcePoint" />
            <mxPoint x="1010" y="550" as="targetPoint" />
          </mxGeometry>
        </mxCell>
        <mxCell id="XT0uwpQFi3JfV9xLX5Nc-14" value="5. Google validates the auth_token which Firebase DB wil now grant with an access token" style="edgeLabel;html=1;align=center;verticalAlign=middle;resizable=0;points=[];" vertex="1" connectable="0" parent="XT0uwpQFi3JfV9xLX5Nc-13">
          <mxGeometry x="0.2398" relative="1" as="geometry">
            <mxPoint x="-743" y="-283" as="offset" />
          </mxGeometry>
        </mxCell>
        <mxCell id="XT0uwpQFi3JfV9xLX5Nc-20" value="5" style="edgeLabel;html=1;align=center;verticalAlign=middle;resizable=0;points=[];" vertex="1" connectable="0" parent="XT0uwpQFi3JfV9xLX5Nc-13">
          <mxGeometry x="0.0568" y="-2" relative="1" as="geometry">
            <mxPoint as="offset" />
          </mxGeometry>
        </mxCell>
        <mxCell id="XT0uwpQFi3JfV9xLX5Nc-15" value="" style="endArrow=classic;html=1;rounded=0;entryX=0.5;entryY=0;entryDx=0;entryDy=0;exitX=0;exitY=0;exitDx=0;exitDy=15;exitPerimeter=0;" edge="1" parent="1" source="XT0uwpQFi3JfV9xLX5Nc-2" target="XT0uwpQFi3JfV9xLX5Nc-1">
          <mxGeometry width="50" height="50" relative="1" as="geometry">
            <mxPoint x="800" y="560" as="sourcePoint" />
            <mxPoint x="850" y="510" as="targetPoint" />
          </mxGeometry>
        </mxCell>
        <mxCell id="XT0uwpQFi3JfV9xLX5Nc-21" value="6. Firebase DB grants access with an access token back to the app." style="edgeLabel;html=1;align=center;verticalAlign=middle;resizable=0;points=[];" vertex="1" connectable="0" parent="XT0uwpQFi3JfV9xLX5Nc-15">
          <mxGeometry x="-0.1088" y="3" relative="1" as="geometry">
            <mxPoint x="-499" y="-127" as="offset" />
          </mxGeometry>
        </mxCell>
        <mxCell id="XT0uwpQFi3JfV9xLX5Nc-22" value="6" style="edgeLabel;html=1;align=center;verticalAlign=middle;resizable=0;points=[];" vertex="1" connectable="0" parent="XT0uwpQFi3JfV9xLX5Nc-15">
          <mxGeometry x="-0.2513" y="-1" relative="1" as="geometry">
            <mxPoint as="offset" />
          </mxGeometry>
        </mxCell>
        <mxCell id="XT0uwpQFi3JfV9xLX5Nc-23" value="" style="curved=1;endArrow=classic;html=1;rounded=0;exitX=0;exitY=0.5;exitDx=0;exitDy=0;entryX=0;entryY=0.5;entryDx=0;entryDy=0;entryPerimeter=0;" edge="1" parent="1" source="XT0uwpQFi3JfV9xLX5Nc-1" target="XT0uwpQFi3JfV9xLX5Nc-2">
          <mxGeometry width="50" height="50" relative="1" as="geometry">
            <mxPoint x="300" y="640" as="sourcePoint" />
            <mxPoint x="990" y="220" as="targetPoint" />
            <Array as="points">
              <mxPoint x="330" y="530" />
              <mxPoint x="350" y="640" />
              <mxPoint x="240" y="550" />
              <mxPoint x="230" y="500" />
              <mxPoint x="260" y="460" />
              <mxPoint x="360" y="360" />
              <mxPoint x="530" y="310" />
              <mxPoint x="640" y="280" />
            </Array>
          </mxGeometry>
        </mxCell>
        <mxCell id="XT0uwpQFi3JfV9xLX5Nc-24" value="7" style="edgeLabel;html=1;align=center;verticalAlign=middle;resizable=0;points=[];" vertex="1" connectable="0" parent="XT0uwpQFi3JfV9xLX5Nc-23">
          <mxGeometry x="0.4179" y="-4" relative="1" as="geometry">
            <mxPoint as="offset" />
          </mxGeometry>
        </mxCell>
        <mxCell id="XT0uwpQFi3JfV9xLX5Nc-25" value="7. proceeds with CRUD methods along with access token" style="edgeLabel;html=1;align=center;verticalAlign=middle;resizable=0;points=[];" vertex="1" connectable="0" parent="XT0uwpQFi3JfV9xLX5Nc-23">
          <mxGeometry x="0.3567" y="-5" relative="1" as="geometry">
            <mxPoint x="-404" y="-40" as="offset" />
          </mxGeometry>
        </mxCell>
        <mxCell id="XT0uwpQFi3JfV9xLX5Nc-26" value="" style="curved=1;endArrow=classic;html=1;rounded=0;entryX=0.25;entryY=0;entryDx=0;entryDy=0;exitX=0.5;exitY=0;exitDx=0;exitDy=0;exitPerimeter=0;" edge="1" parent="1" source="XT0uwpQFi3JfV9xLX5Nc-2" target="XT0uwpQFi3JfV9xLX5Nc-1">
          <mxGeometry width="50" height="50" relative="1" as="geometry">
            <mxPoint x="910" y="540" as="sourcePoint" />
            <mxPoint x="850" y="510" as="targetPoint" />
            <Array as="points">
              <mxPoint x="770" y="180" />
              <mxPoint x="540" y="230" />
            </Array>
          </mxGeometry>
        </mxCell>
        <mxCell id="XT0uwpQFi3JfV9xLX5Nc-27" value="8" style="edgeLabel;html=1;align=center;verticalAlign=middle;resizable=0;points=[];" vertex="1" connectable="0" parent="XT0uwpQFi3JfV9xLX5Nc-26">
          <mxGeometry x="-0.2296" y="7" relative="1" as="geometry">
            <mxPoint as="offset" />
          </mxGeometry>
        </mxCell>
        <mxCell id="XT0uwpQFi3JfV9xLX5Nc-28" value="8. Fireback DB sends back responses (response code) to the CRUD request (methods)" style="edgeLabel;html=1;align=center;verticalAlign=middle;resizable=0;points=[];" vertex="1" connectable="0" parent="XT0uwpQFi3JfV9xLX5Nc-26">
          <mxGeometry x="-0.3563" y="16" relative="1" as="geometry">
            <mxPoint x="-507" y="91" as="offset" />
          </mxGeometry>
        </mxCell>
      </root>
    </mxGraphModel>
  </diagram>
</mxfile>
